<svg xmlns="http://www.w3.org/2000/svg" viewBox="0 0 640 640" role="img" aria-labelledby="t d">
<title id="t">Project GEEK mascot</title><desc id="d">Retro 1970s supercomputer mascot in a circular Project GEEK badge.</desc>
<defs><clipPath id="c"><circle cx="320" cy="320" r="300"/></clipPath></defs>
<rect width="640" height="640" fill="#050914"/><circle cx="320" cy="320" r="306" fill="#050914" stroke="#ffd34d" stroke-width="14"/>
<g clip-path="url(#c)"><rect x="20" y="20" width="600" height="600" fill="#503391"/><path d="M20 250h600v370H20z" fill="#173d8b"/><path d="M20 410h600v210H20z" fill="#102453"/>
<g stroke="#243f82" stroke-width="6" fill="#244b9a"><path d="M35 280h115v215H35zM490 280h115v215H490z"/><g fill="#0b1538"><circle cx="78" cy="330" r="24"/><circle cx="118" cy="330" r="24"/><circle cx="522" cy="330" r="24"/><circle cx="562" cy="330" r="24"/></g><g fill="#c92f2f"><rect x="50" y="385" width="85" height="12" rx="4"/><rect x="505" y="385" width="85" height="12" rx="4"/></g></g>
<g fill="#ffd34d"><path d="M80 140l7 22 22 7-22 7-7 22-7-22-22-7 22-7zM550 145l6 18 18 6-18 6-6 18-6-18-18-6 18-6zM510 235l5 15 15 5-15 5-5 15-5-15-15-5 15-5z"/></g>
<g stroke="#050914" stroke-width="10" stroke-linejoin="round"><path d="M222 150l42-48 150 24 20 65-18 285-200 8-18-273z" fill="#9fb4db"/><path d="M263 113l-50 76v206l54-9V154z" fill="#2b58a7"/><rect x="272" y="132" width="136" height="113" rx="22" fill="#071027" stroke="#173d8b"/><g fill="#f9df72" stroke="none"><ellipse cx="311" cy="182" rx="12" ry="27"/><ellipse cx="369" cy="182" rx="12" ry="27"/><path d="M307 212q33 25 68 0" fill="none" stroke="#f9df72" stroke-width="8" stroke-linecap="round"/><path d="M294 157l25-14M361 143l27 11" stroke="#f9df72" stroke-width="8" stroke-linecap="round"/></g>
<rect x="275" y="272" width="92" height="88" rx="8" fill="#355ca6"/><g fill="#bfcceb" stroke="#071027" stroke-width="6"><circle cx="303" cy="308" r="25"/><circle cx="339" cy="308" r="25"/></g><g fill="#c92f2f" stroke="none"><circle cx="389" cy="279" r="8"/><circle cx="389" cy="304" r="8"/><circle cx="389" cy="329" r="8"/></g><g fill="#ffd34d" stroke="none"><circle cx="389" cy="354" r="8"/><circle cx="389" cy="379" r="8"/></g><g stroke="#0b1538" stroke-width="7"><path d="M379 276h27M379 294h27M379 312h27M379 330h27M379 348h27"/></g><rect x="279" y="379" width="89" height="39" fill="#173d8b"/><g fill="#ffd34d" stroke="none"><rect x="292" y="390" width="14" height="14"/><rect x="318" y="390" width="14" height="14"/><rect x="344" y="390" width="14" height="14"/></g>
<path d="M213 230l-84 71 46 88 57-41 13-96z" fill="#aebfe0"/><path d="M431 229l81 72-44 88-58-42-10-96z" fill="#aebfe0"/><path d="M174 350l-55 48 62 58 59-65-8-43z" fill="#173d8b"/><path d="M467 350l55 48-61 58-60-65 9-44z" fill="#173d8b"/></g>
<path d="M80 455Q320 423 560 455l-35 135H115z" fill="#a9242b" stroke="#ffd34d" stroke-width="10"/><text x="320" y="500" text-anchor="middle" fill="#f4ebcf" font-family="ui-monospace,monospace" font-size="28" font-weight="800" letter-spacing="7">PROJECT</text><text x="320" y="566" text-anchor="middle" fill="#ffd34d" stroke="#050914" stroke-width="5" paint-order="stroke" font-family="Impact,Arial Black,sans-serif" font-size="100" font-weight="900" letter-spacing="2">GEEK</text>
</g></svg>
